<svg width="26" height="26" viewBox="0 0 26 26" fill="none" xmlns="http://www.w3.org/2000/svg">
<circle cx="13" cy="13" r="13" fill="#23B250"/>
<path d="M10.9945 9.2515L14.6485 13L10.9945 16.7485C10.9291 16.8155 10.8925 16.9054 10.8925 16.999C10.8925 17.0926 10.9291 17.1825 10.9945 17.2495C11.0263 17.2819 11.0642 17.3077 11.1061 17.3253C11.1479 17.3429 11.1929 17.3519 11.2383 17.3519C11.2837 17.3519 11.3286 17.3429 11.3705 17.3253C11.4123 17.3077 11.4502 17.2819 11.482 17.2495L15.37 13.2618C15.4383 13.1917 15.4765 13.0978 15.4765 13C15.4765 12.9022 15.4383 12.8083 15.37 12.7383L11.4828 8.7505C11.451 8.71785 11.4129 8.69189 11.371 8.67417C11.329 8.65644 11.2838 8.64731 11.2383 8.64731C11.1927 8.64731 11.1476 8.65644 11.1056 8.67417C11.0636 8.69189 11.0256 8.71785 10.9938 8.7505C10.9283 8.81748 10.8917 8.90738 10.8917 9.001C10.8917 9.09462 10.9283 9.18453 10.9938 9.2515H10.9945Z" fill="white"/>
</svg>
